<svg width="75" height="75" viewBox="0 0 75 75" fill="none" xmlns="http://www.w3.org/2000/svg">
<circle cx="37.5" cy="37.5" r="37.5" fill="#E4F0DF"/>
<path d="M26.125 35.2651H48.875L47.5373 30.6096H27.4992L26.125 35.2651ZM44.6543 37.4525H30.3682L29.9111 40.9021H45.103L44.6543 37.4525ZM26.4364 50.4513L28.1948 37.4525H24.8518C24.4499 37.4525 24.1302 37.2908 23.8927 36.9673C23.6553 36.6439 23.5879 36.2887 23.6908 35.9017L25.5866 29.2972C25.6651 29.0279 25.8072 28.8124 26.0129 28.6507C26.2185 28.489 26.4635 28.4128 26.7477 28.4222H48.2664C48.5506 28.4222 48.7955 28.503 49.0012 28.6647C49.2069 28.8265 49.349 29.0419 49.4275 29.3112L51.3233 35.9017C51.4261 36.2887 51.3588 36.6439 51.1214 36.9673C50.8839 37.2908 50.5642 37.4525 50.1623 37.4525H46.8277L48.5637 50.4513H46.3902L45.3919 43.0895H29.6082L28.6098 50.4513H26.4364Z" fill="#4C9A29"/>
<path d="M23 46.105L54.5437 27.0002" stroke="#4C9A29" stroke-width="2" stroke-linecap="round"/>
</svg>
