<svg width="75" height="75" viewBox="0 0 75 75" fill="none" xmlns="http://www.w3.org/2000/svg">
<circle cx="37.5" cy="37.5" r="37.5" fill="#E4F0DF"/>
<path d="M28.75 49.1668L30.9375 43.6981C31.1563 43.1391 31.5087 42.6955 31.9948 42.3674C32.4809 42.0392 33.0278 41.8752 33.6354 41.8752H36.0417V36.0054C32.3229 35.8838 29.2057 35.337 26.6901 34.3647C24.1745 33.3925 22.9167 32.2502 22.9167 30.9377C22.9167 29.5279 24.3386 28.3248 27.1823 27.3283C30.0261 26.3318 33.4653 25.8335 37.5 25.8335C41.559 25.8335 45.0044 26.3318 47.836 27.3283C50.6676 28.3248 52.0834 29.5279 52.0834 30.9377C52.0834 32.2502 50.8255 33.3925 48.3099 34.3647C45.7943 35.337 42.6771 35.8838 38.9584 36.0054V41.8752H41.3646C41.9479 41.8752 42.4887 42.0392 42.987 42.3674C43.4853 42.6955 43.8438 43.1391 44.0625 43.6981L46.25 49.1668H43.3334L41.5834 44.7918H33.4167L31.6667 49.1668H28.75ZM37.5 33.1252C39.8577 33.1252 42.0816 32.9186 44.1719 32.5054C46.2622 32.0922 47.7934 31.5696 48.7656 30.9377C47.7934 30.3057 46.2622 29.7831 44.1719 29.37C42.0816 28.9568 39.8577 28.7502 37.5 28.7502C35.1424 28.7502 32.9184 28.9568 30.8281 29.37C28.7379 29.7831 27.2066 30.3057 26.2344 30.9377C27.2066 31.5696 28.7379 32.0922 30.8281 32.5054C32.9184 32.9186 35.1424 33.1252 37.5 33.1252Z" fill="#4C9A29"/>
</svg>
