<svg width="75" height="75" viewBox="0 0 75 75" fill="none" xmlns="http://www.w3.org/2000/svg">
<circle cx="37.5" cy="37.5" r="37.5" fill="#E4F0DF"/>
<path d="M35.1944 55V50.8194C33.4769 50.4306 31.9942 49.6852 30.7465 48.5833C29.4988 47.4815 28.5833 45.9259 28 43.9167L31.5972 42.4583C32.0833 44.0139 32.8044 45.1968 33.7604 46.0069C34.7164 46.8171 35.9722 47.2222 37.5278 47.2222C38.8565 47.2222 39.9826 46.9225 40.9063 46.3229C41.8299 45.7234 42.2917 44.7917 42.2917 43.5278C42.2917 42.3935 41.9352 41.4942 41.2222 40.8299C40.5093 40.1655 38.8565 39.412 36.2639 38.5694C33.4769 37.6944 31.5648 36.6493 30.5278 35.434C29.4907 34.2188 28.9722 32.7361 28.9722 30.9861C28.9722 28.8796 29.6528 27.2431 31.0139 26.0764C32.375 24.9097 33.7685 24.2454 35.1944 24.0833V20H39.0833V24.0833C40.7037 24.3426 42.0405 24.934 43.0938 25.8576C44.147 26.7813 44.9167 27.9074 45.4028 29.2361L41.8056 30.7917C41.4167 29.7546 40.8657 28.9769 40.1528 28.4583C39.4398 27.9398 38.4676 27.6806 37.2361 27.6806C35.8102 27.6806 34.7245 27.9965 33.9792 28.6285C33.2338 29.2604 32.8611 30.0463 32.8611 30.9861C32.8611 32.0556 33.3472 32.8981 34.3194 33.5139C35.2917 34.1296 36.9769 34.7778 39.375 35.4583C41.6111 36.1065 43.3044 37.1354 44.4549 38.5451C45.6053 39.9549 46.1806 41.5833 46.1806 43.4306C46.1806 45.7315 45.5 47.4815 44.1389 48.6806C42.7778 49.8796 41.0926 50.625 39.0833 50.9167V55H35.1944Z" fill="#4C9A29"/>
</svg>
